<svg xmlns="http://www.w3.org/2000/svg" viewBox="0 0 100 100">
  <!-- Background circle -->
  <circle cx="50" cy="50" r="48" fill="#1f77b4" opacity="0.1"/>
  
  <!-- Chart bars representing data -->
  <rect x="25" y="40" width="8" height="25" fill="#1f77b4" rx="2"/>
  <rect x="38" y="30" width="8" height="35" fill="#ff7f0e" rx="2"/>
  <rect x="51" y="20" width="8" height="45" fill="#2ca02c" rx="2"/>
  <rect x="64" y="35" width="8" height="30" fill="#d62728" rx="2"/>
  
  <!-- Chart line -->
  <path d="M 22 55 Q 35 45, 48 25 T 75 40" stroke="#1f77b4" stroke-width="3" fill="none"/>
  
  <!-- Data points on line -->
  <circle cx="35" cy="45" r="3" fill="#1f77b4"/>
  <circle cx="48" cy="25" r="3" fill="#1f77b4"/>
  <circle cx="62" cy="35" r="3" fill="#1f77b4"/>
  <circle cx="75" cy="40" r="3" fill="#1f77b4"/>
  
  <!-- AI sparkle/star symbol -->
  <g transform="translate(70, 25)">
    <path d="M 0,-8 L 2,-2 L 8,0 L 2,2 L 0,8 L -2,2 L -8,0 L -2,-2 Z" fill="#ffd700" opacity="0.9"/>
    <circle cx="0" cy="0" r="3" fill="#fff"/>
  </g>
</svg>

